<svg xmlns="http://www.w3.org/2000/svg" id="b2b52a2b-13b2-4a10-a88d-ec896efe4e52" data-name="Слой 1 копия 34"
     viewBox="0 0 921.39 441.23">
    <path d="M255.72,378.46c-14.88,26.39-32.47,52.1-54.12,74.42,21.65-4.74,46,14.88,50.74,33.82A88.82,88.82,0,0,1,251,538.12c-6.77,21-11.5,41.26-23,60.21C199.57,647,154.93,697.77,94.72,699.8,63.6,701.16,10.15,684.92,23,642.3c4.06-14.21,10.15-31.8,19.62-43.3,4.73-6.76,32.47-28.41,33.82-8.11.68,2-4.06,9.47-4.06,11.5a103.18,103.18,0,0,0-4.73,24.35c-.68,14.21.67,34.5,17.59,37.88,26.38,4.06,48-37.88,60.2-54.79,22.33-30.45,46-67,54.8-104.86,8.12-31.8-13.53-23.68-33.82-12.18-12.18,6.09-30.45,21-44.65,17.59-12.86-2.7-15.56-16.91-12.18-27.06S128.54,461,136.66,452.2L152.22,436c2.71-2.71,4.74-2.71,6.76-6.09,0-.68-1.35-4.06-.67-5.41,6.76-17.59,23.68-31.8,33.82-48,8.12-13.53,16.92-27.74,24.36-41.95,2-4.06,9.47-27.06,8.11-30.44-2-3.38-6.76-3.38-10.14-4.06-27.74-2-56.83,25.71-73.06,43.3-7.45,7.44-15.56,12.85-21.65,21-4.06,4.06-7.44,11.5-13.53,12.18-14.21,2-13.53-17.59-10.15-26.39,8.79-23.68,33.15-33.82,50.06-50.06,24.35-22.32,135.3-75.77,138-6.09C285.49,323,269.93,353.43,255.72,378.46ZM235.43,536.77c-4.74,20.29-20.3,39.23-29.77,57.5-8.12,16.23-22.32,30.44-34.5,45.32C179.28,630.12,221.22,602.39,235.43,536.77Z"
          transform="translate(-21.05 -259.31)" style="fill:white"/>
    <path d="M449.23,270.74h50.68l28.2,260.55H483.18L473.14,386c-1.76-26.61-3.83-52.59-5.1-81.11h-1.6c-12.59,28.36-24.22,53.86-37.6,81.11L357.12,531.29H309.64ZM383.58,425.16H500.39L492.74,458H375.61Z"
          transform="translate(-21.05 -259.31)" style="fill:white"/>
    <path d="M687.87,270.74h47.65L756.08,401.1l7.72,50.19h1.6l26.05-50.19,71.39-130.36h47.65L858.38,531.29H817.75L843.4,406.36c5.26-24.86,14.18-57.85,21.36-81.91H863.4l-31.79,59-69,122.39H742.85L721.34,383.41l-8.61-59h-1.35c-2.79,24.38-6.06,57.53-10.76,81.91L675.44,531.29H635.76Z"
          transform="translate(-21.05 -259.31)" style="fill:white"/>
    <path d="M270.06,592h29c20.78,0,33.61,8.32,33.61,24,0,14.71-12.24,24.46-24.2,27.21l-.12.66c11.19,2.56,19.86,9.59,19.86,22,0,24.13-19.23,34.67-45,34.67H248.35Zm12,98.38c20.54,0,33.64-7.08,33.64-23.85,0-11-8.81-18.49-24.8-18.49H271.74L263.1,690.4Zm7.09-51.63c20.63,0,30.4-8.63,30.4-20.87,0-9.93-7.35-15.74-23.75-15.74H280.84l-7.34,36.61Z"
          transform="translate(-21.05 -259.31)" style="fill:white"/>
    <path d="M422.19,592H437l12.55,108.52H436.2l-5.62-62.31c-1-11.51-2.13-23-3-35.36H427c-5.76,12.47-11.28,23.43-17.37,35.36l-32.07,62.31H363.25Zm-30,64.63h47.63l-2.33,10H389.64Z"
          transform="translate(-21.05 -259.31)" style="fill:white"/>
    <path d="M517,592h12.87l-10.71,53.63h.45L573.91,592h14.55l-40.57,41.75,24.65,66.77H559.09L538.2,642l-22.67,22.14-7.41,36.45H495.25Z"
          transform="translate(-21.05 -259.31)" style="fill:white"/>
    <path d="M642.46,592H702.3l-2.21,10.87H653L646,638H685.9l-2.21,10.87H644l-8.39,40.76h48.62L682,700.54H620.76Z"
          transform="translate(-21.05 -259.31)" style="fill:white"/>
    <path d="M758.71,592h29.75c20.24,0,33.85,7.19,33.85,25.3,0,24.33-20,37.2-44.17,37.2H759l-9.16,46H737Zm18.81,52.11c20.7,0,32-9.66,32-25.14,0-11.91-8.34-16.59-24.32-16.59H769.38l-8.13,41.73ZM777,652l9.87-7.59,22.64,56.13H795.69Z"
          transform="translate(-21.05 -259.31)" style="fill:white"/>
    <path d="M884.25,658.14,866.59,592h13.23l7.45,31.23c1.84,8.06,3.46,15.32,5.41,23.6h.56c5-8.08,9.71-15.77,14.86-23.72L928.63,592h13.81l-45.32,66.12-8.55,42.4H875.76Z"
          transform="translate(-21.05 -259.31)" style="fill:white"/>
</svg>