<svg class="logo-img" id="_061116_d7ecf4_копия_9" data-name="#061116 + d7ecf4 копия 9"
     xmlns="http://www.w3.org/2000/svg" viewBox="0 0 381.96 382.08">
  <defs>
    <style>.cls-1 {
      fill: black;
    }</style>
  </defs>
  <path class="cls-1 col-chng"
        d="M607.9,462.19C584.69,423.1,551.09,399.33,506,393.51c-39-5-74.29,5.15-104.26,30.71-35.76,30.5-52.3,69.78-48,116.66S382.14,622.57,421.91,647A145,145,0,0,1,364,617c-30.08-25.27-47.88-57.57-53.09-96.43-5.38-40.2,4-77.08,28.07-109.76,22.75-30.87,53-50.95,90.69-58.61,41.89-8.52,81.12-1.06,116.69,22.85A151.19,151.19,0,0,1,607.9,462.19Z"
        transform="translate(-309.43 -309.31)"/>
  <path class="cls-1 col-chng" d="M361.2,630.24l-.1,0,.1,0Z" transform="translate(-309.43 -309.31)"/>
  <path class="cls-1 col-chng" d="M361.44,630.48l-.24-.24h0l.24.24Z" transform="translate(-309.43 -309.31)"/>
</svg>