<svg class="logo-img" id="_061116_d7ecf4_копия_9" data-name="#061116 + d7ecf4 копия 9"
     xmlns="http://www.w3.org/2000/svg" viewBox="0 0 381.96 382.08">
    <defs>
        <style>.cls-1 {
            fill: black;
            }</style>
    </defs>
    <title>LOGOTIP1337</title>
    <path class="cls-1 col-chng"
          d="M361.44,630.48c1.49,1,2.94,2.15,4.47,3.14,4.87,3.16,9.7,6.41,14.69,9.39,3.6,2.14,7.36,4,11.14,5.83a148,148,0,0,0,30.84,10.88c5.42,1.23,10.9,2.21,16.38,3.11a73.47,73.47,0,0,0,9,.75c6.18.24,12.37.49,18.54.45a72.65,72.65,0,0,0,13.06-1.1c5.73-1.11,11.54-1.77,17.24-3a152.2,152.2,0,0,0,25.53-8,168.47,168.47,0,0,0,27.59-14.29,150.67,150.67,0,0,0,18.47-13.77c4.46-3.92,8.77-8.05,12.86-12.37a134.19,134.19,0,0,0,16-20.23c3.27-5.14,6.31-10.45,9.22-15.81a133.63,133.63,0,0,0,10.82-26.67c1.86-6.45,3.34-13,4.75-19.58.82-3.83,1.19-7.76,1.71-11.66a81.24,81.24,0,0,0,.95-8.5q.24-8,0-16c-.1-3.37-.49-6.73-.9-10.08-.57-4.53-1.13-9.07-2-13.55s-2-9-3.19-13.46A151.45,151.45,0,0,0,611,434.55a145.83,145.83,0,0,0-14.29-25.83c-3.54-5-7.31-9.94-11.31-14.62s-8.19-9.08-12.58-13.31a140.88,140.88,0,0,0-16.73-13.67,169.82,169.82,0,0,0-19.51-11.85,157.05,157.05,0,0,0-28.37-11.4c-4.32-1.25-8.67-2.44-13.06-3.36-4.58-1-9.21-1.77-13.85-2.31-5.37-.61-10.78-.89-16.17-1.23a75,75,0,0,0-8.61-.2c-4.88.24-9.75.72-14.62,1.13A132.64,132.64,0,0,0,419.55,342a160.51,160.51,0,0,0-22.05,7.53,158.43,158.43,0,0,0-27.49,15c-3.38,2.31-6.61,4.84-9.91,7.27a5.43,5.43,0,0,1-.63.29,4.49,4.49,0,0,1,.42-.77c3.09-3.18,6.08-6.47,9.31-9.5a200.67,200.67,0,0,1,22.71-18.61A190.44,190.44,0,0,1,419.84,327a161.19,161.19,0,0,1,29.7-10.91q10.17-2.55,20.49-4.48c4.24-.79,8.59-1,12.89-1.53,8.31-1,16.66-.75,25-.66,3.69,0,7.37.52,11.05.89s7.1.75,10.64,1.25c2.71.39,5.4.95,8.09,1.48a169.42,169.42,0,0,1,24.75,6.7c6,2.17,12,4.6,17.86,7.18a163.45,163.45,0,0,1,28.06,15.7c5.48,3.83,10.72,8,16,12.11a156.71,156.71,0,0,1,16.95,16,174.55,174.55,0,0,1,20.89,27.13c2.62,4.19,5,8.54,7.35,12.89a177.29,177.29,0,0,1,13.13,31.55,164.57,164.57,0,0,1,5.66,23.28c.64,4,1.35,8.07,1.86,12.12.39,3.11.64,6.25.75,9.39.24,6.86.48,13.72.44,20.58a122.65,122.65,0,0,1-.9,12.24c-.45,4.3-.92,8.62-1.72,12.86q-1.72,9.19-4,18.28a158.93,158.93,0,0,1-7.26,21.64,189,189,0,0,1-10.46,21.64,184,184,0,0,1-14.51,21.92c-2.48,3.21-5.09,6.33-7.78,9.36-3.15,3.55-6.27,7.16-9.73,10.39-5.19,4.82-10.57,9.44-16,14a159,159,0,0,1-21,14.42,169.2,169.2,0,0,1-23.31,11.69c-5.85,2.32-11.75,4.54-17.72,6.55a169.31,169.31,0,0,1-23.61,5.86c-4.41.79-8.86,1.38-13.31,1.93-2.52.31-5.07.43-7.62.51-5.9.2-11.8.49-17.7.43-4.16,0-8.33-.49-12.48-.89s-8.22-.85-12.3-1.49a106,106,0,0,1-10.86-2.19c-7-1.86-13.95-3.66-20.75-6-6.36-2.19-12.56-4.9-18.69-7.67a166.12,166.12,0,0,1-27.62-16c-5-3.54-9.89-7.26-14.53-11.25-5.28-4.55-10.23-9.49-15.31-14.28a6.65,6.65,0,0,1-.8-1.14Z"
          transform="translate(-309.43 -309.31)"/>
    <path class="cls-1 col-chng"
          d="M607.9,462.19C584.69,423.1,551.09,399.33,506,393.51c-39-5-74.29,5.15-104.26,30.71-35.76,30.5-52.3,69.78-48,116.66S382.14,622.57,421.91,647A145,145,0,0,1,364,617c-30.08-25.27-47.88-57.57-53.09-96.43-5.38-40.2,4-77.08,28.07-109.76,22.75-30.87,53-50.95,90.69-58.61,41.89-8.52,81.12-1.06,116.69,22.85A151.19,151.19,0,0,1,607.9,462.19Z"
          transform="translate(-309.43 -309.31)"/>
    <path class="cls-1 col-chng" d="M361.2,630.24l-.1,0,.1,0Z" transform="translate(-309.43 -309.31)"/>
    <path class="cls-1 col-chng" d="M361.44,630.48l-.24-.24h0l.24.24Z" transform="translate(-309.43 -309.31)"/>
</svg>