<svg id="Слой_1" data-name="Слой 1" xmlns="http://www.w3.org/2000/svg" viewBox="0 0 59.49 52.14">
    <rect x="0.5" y="0.5" width="58.49" height="9.34" rx="4.21" style="fill:#f0f8ff"/>
    <path d="M76.94,24a3.7,3.7,0,0,1,3.7,3.7v.93a3.71,3.71,0,0,1-3.7,3.71H26.86a3.72,3.72,0,0,1-3.71-3.71v-.93A3.71,3.71,0,0,1,26.86,24H76.94m0-1H26.86a4.72,4.72,0,0,0-4.71,4.7v.93a4.72,4.72,0,0,0,4.71,4.71H76.94a4.72,4.72,0,0,0,4.7-4.71v-.93a4.71,4.71,0,0,0-4.7-4.7Z"
          transform="translate(-22.15 -22.99)" style="fill:#f0f8ff"/>
    <path d="M4,21.4H55.54A3.46,3.46,0,0,1,59,24.85v2.43a3.46,3.46,0,0,1-3.46,3.46H4A3.45,3.45,0,0,1,.5,27.28V24.85A3.46,3.46,0,0,1,4,21.4Z"
          style="fill:#f0f8ff"/>
    <path d="M77.69,44.89a3,3,0,0,1,3,3v2.43a3,3,0,0,1-3,3H26.11a3,3,0,0,1-3-3V47.84a3,3,0,0,1,3-3H77.69m0-1H26.11a4,4,0,0,0-4,4v2.43a4,4,0,0,0,4,4H77.69a4,4,0,0,0,4-4V47.84a4,4,0,0,0-4-4Z"
          transform="translate(-22.15 -22.99)" style="fill:#f0f8ff"/>
    <rect x="0.5" y="42.3" width="58.49" height="9.34" rx="3.46" style="fill:#f0f8ff"/>
    <path d="M77.69,65.79a3,3,0,0,1,3,2.95v2.43a3,3,0,0,1-3,3H26.11a3,3,0,0,1-3-3V68.74a3,3,0,0,1,3-2.95H77.69m0-1H26.11a4,4,0,0,0-4,3.95v2.43a4,4,0,0,0,4,4H77.69a4,4,0,0,0,4-4V68.74a4,4,0,0,0-4-3.95Z"
          transform="translate(-22.15 -22.99)" style="fill:#f0f8ff"/>
</svg>